<?xml version="1.0" standalone="no"?>
<!DOCTYPE svg PUBLIC "-//W3C//DTD SVG 20010904//EN"
 "http://www.w3.org/TR/2001/REC-SVG-20010904/DTD/svg10.dtd">
<svg version="1.0" xmlns="http://www.w3.org/2000/svg"
 width="3600.000000pt" height="3600.000000pt" viewBox="0 0 3600.000000 3600.000000"
 preserveAspectRatio="xMidYMid meet">
<metadata>
Created by potrace 1.11, written by Peter Selinger 2001-2013
</metadata>
<g transform="translate(0.000000,3600.000000) scale(0.100000,-0.100000)"
fill="#000000" stroke="none">
<path d="M23807 31163 c-1 -1 -72 -4 -157 -8 -202 -8 -297 -13 -395 -21 -44
-3 -100 -7 -125 -9 -25 -2 -74 -6 -110 -9 -59 -5 -97 -9 -200 -21 -19 -2 -60
-7 -90 -10 -100 -11 -206 -25 -320 -41 -360 -52 -1036 -191 -1235 -254 -16 -6
-95 -28 -173 -50 -79 -22 -147 -42 -151 -44 -4 -3 -18 -7 -32 -10 -29 -5 -402
-131 -514 -174 -170 -64 -322 -124 -373 -147 -29 -14 -55 -25 -57 -25 -3 0
-71 -30 -152 -66 -1223 -547 -2316 -1332 -3168 -2276 -33 -36 -78 -86 -100
-110 -22 -24 -56 -64 -75 -87 -19 -24 -44 -53 -55 -65 -38 -40 -261 -322 -366
-461 -153 -204 -354 -499 -486 -711 -287 -461 -581 -1021 -758 -1444 -15 -36
-35 -83 -45 -105 -20 -44 -55 -129 -125 -310 -134 -341 -255 -706 -360 -1085
-10 -33 -105 -404 -110 -424 -74 -333 -101 -457 -111 -521 l-6 -42 49 6 c136
17 467 -6 653 -44 535 -110 960 -400 1231 -841 128 -209 247 -528 283 -759 3
-16 10 -59 16 -95 6 -36 13 -93 17 -127 l6 -63 -49 -1 c-191 -2 -1326 0 -1329
3 -2 2 -9 35 -15 73 -30 198 -106 355 -223 462 -109 99 -236 146 -397 146
-183 1 -318 -50 -430 -163 -110 -110 -161 -234 -164 -405 -6 -303 148 -523
811 -1155 137 -131 533 -515 881 -856 202 -198 206 -201 222 -180 9 11 152
242 318 511 165 270 307 498 314 508 13 18 49 19 757 19 408 0 744 -2 746 -4
2 -1 -37 -68 -85 -148 -49 -80 -163 -269 -255 -420 -92 -151 -171 -282 -176
-290 -63 -102 -219 -362 -219 -366 0 -3 -9 -17 -19 -32 -36 -51 -241 -393
-241 -402 0 -5 -4 -10 -8 -12 -6 -2 -115 -177 -132 -213 -3 -5 -18 -30 -34
-54 l-28 -44 138 -135 c77 -74 264 -256 417 -406 154 -149 320 -311 370 -360
51 -48 172 -167 270 -262 l179 -174 -946 0 -946 0 -87 83 c-49 46 -117 110
-152 142 -36 33 -85 79 -109 103 -25 23 -46 42 -48 42 -2 0 -36 -21 -76 -47
-301 -197 -703 -348 -1083 -409 -60 -9 -112 -18 -114 -20 -5 -5 131 -415 190
-569 76 -200 154 -398 175 -443 13 -29 24 -55 24 -58 0 -29 344 -750 438 -919
15 -27 44 -79 64 -115 20 -36 66 -117 103 -180 37 -63 75 -128 85 -145 107
-185 477 -734 577 -855 7 -8 42 -53 78 -100 36 -47 71 -92 78 -100 72 -90 192
-236 197 -240 3 -3 52 -59 110 -125 154 -177 193 -218 435 -460 227 -227 242
-242 410 -390 133 -117 132 -116 270 -229 130 -107 460 -356 565 -426 36 -24
67 -46 70 -49 3 -3 14 -12 25 -19 49 -31 81 -51 91 -59 5 -4 19 -13 30 -20 10
-7 78 -49 149 -94 760 -481 1648 -880 2525 -1133 134 -39 245 -69 300 -81 8
-2 83 -20 165 -40 136 -32 240 -56 305 -69 54 -10 187 -36 215 -41 17 -2 41
-7 55 -10 57 -12 355 -59 445 -70 28 -4 61 -8 75 -10 56 -8 188 -25 240 -30
30 -3 75 -7 100 -10 100 -10 376 -34 480 -40 413 -27 1152 -27 1435 0 22 2 69
7 105 10 104 9 297 32 340 40 14 2 63 9 110 15 46 6 87 13 90 15 3 2 30 6 60
10 30 4 58 9 61 10 3 2 28 7 55 11 27 3 52 8 55 10 4 2 24 6 45 10 22 3 89 17
149 31 61 13 117 26 125 28 8 1 35 8 60 15 25 7 56 14 70 16 14 3 34 8 45 11
11 4 25 8 30 9 6 1 30 7 55 15 25 7 50 13 55 14 6 2 44 13 85 26 41 12 80 23
85 25 32 6 383 125 505 171 129 49 375 148 470 190 75 34 419 204 480 238 246
138 503 306 738 483 62 46 114 83 116 81 3 -4 96 -466 103 -514 2 -16 8 -43
13 -60 5 -16 12 -50 15 -75 4 -24 8 -47 10 -50 2 -3 6 -23 9 -45 6 -38 10 -60
22 -115 3 -14 7 -36 10 -50 24 -128 37 -170 53 -171 94 -5 4533 -1 4538 4 4 5
9 11683 4 11753 -1 17 -10101 17 -10102 0 -5 -67 -3 -4535 2 -4546 6 -13 238
-15 2008 -14 1101 0 2001 -2 2001 -6 0 -36 -115 -316 -195 -475 -295 -585
-721 -998 -1280 -1240 -60 -26 -124 -54 -142 -61 -17 -8 -36 -14 -42 -14 -6 0
-19 -4 -29 -10 -37 -21 -393 -122 -480 -136 -15 -2 -50 -9 -78 -15 -28 -5 -64
-12 -80 -14 -16 -3 -45 -8 -64 -11 -19 -3 -48 -8 -63 -10 -15 -2 -44 -5 -65
-8 -146 -20 -270 -31 -457 -42 -80 -4 -581 -4 -625 0 -19 2 -80 7 -135 10 -55
4 -111 9 -125 11 -14 2 -52 7 -85 10 -33 4 -69 8 -80 10 -67 9 -114 16 -140
22 -16 3 -40 7 -52 9 -42 4 -219 46 -338 79 -313 87 -505 173 -853 380 -81 48
-335 231 -388 280 -6 5 -40 35 -75 65 -224 193 -415 417 -621 727 -126 188
-198 311 -289 493 -60 120 -82 168 -135 287 -93 209 -222 591 -286 848 -5 22
-11 47 -14 55 -5 22 -35 151 -40 180 -3 13 -12 56 -20 95 -9 38 -17 79 -20 90
-7 35 -35 188 -44 245 -5 30 -11 73 -15 95 -3 22 -8 51 -11 65 -7 46 -34 254
-39 310 -3 30 -7 76 -10 103 -32 304 -39 469 -39 892 0 337 8 622 19 695 2 14
6 70 10 125 3 55 7 111 10 125 2 14 7 57 10 95 3 39 8 81 10 95 2 14 7 50 10
80 3 30 8 66 10 80 3 14 7 45 10 70 2 25 6 54 9 65 2 11 7 45 11 75 4 30 9 64
11 75 3 11 7 35 10 54 3 18 8 43 10 55 2 11 9 50 15 86 6 36 31 155 55 266
145 663 359 1216 675 1744 99 167 103 173 112 185 4 5 26 35 48 65 65 90 80
109 164 214 78 98 271 299 370 387 28 24 66 58 85 74 208 183 597 424 845 524
44 18 89 36 100 41 118 50 471 147 635 175 19 3 49 8 65 11 17 3 44 7 60 9 17
2 48 7 70 10 74 12 90 14 155 20 36 3 79 8 95 10 70 8 321 18 460 18 263 0
458 -16 685 -55 63 -11 124 -21 135 -23 11 -2 58 -13 105 -25 47 -12 92 -23
100 -25 8 -2 53 -15 100 -30 306 -98 632 -266 875 -452 405 -311 706 -755 909
-1341 32 -92 91 -286 102 -334 4 -16 10 -44 18 -73 1 -5 5 -19 9 -30 3 -11 8
-31 11 -45 2 -14 20 -95 40 -180 20 -85 38 -164 40 -175 2 -11 9 -40 16 -65 7
-25 14 -54 16 -65 2 -11 18 -82 35 -157 l32 -138 2990 0 2989 0 -6 68 c-12
123 -17 177 -22 222 -3 25 -7 72 -10 105 -2 33 -6 76 -9 95 -2 19 -7 64 -10
100 -3 36 -8 81 -10 100 -3 19 -7 64 -10 100 -9 108 -15 183 -20 228 -11 99
-15 131 -21 197 -3 39 -7 77 -9 85 -1 8 -6 44 -10 80 -7 65 -11 94 -20 148 -5
33 -13 86 -20 152 -3 25 -8 52 -11 61 -2 9 -11 56 -20 105 -21 124 -20 118
-43 234 -12 58 -24 116 -27 130 -17 85 -91 377 -134 528 -137 475 -325 960
-524 1352 -64 125 -141 270 -165 310 -11 19 -24 42 -28 50 -28 62 -308 501
-414 651 -119 168 -432 568 -509 650 -8 9 -49 54 -90 100 -434 485 -941 927
-1530 1331 -129 89 -494 318 -506 318 -2 0 -32 17 -66 38 -150 91 -471 256
-748 385 -466 215 -1059 424 -1615 567 -135 35 -380 92 -445 104 -14 3 -68 14
-120 24 -52 11 -108 22 -125 25 -16 3 -73 13 -125 22 -52 9 -104 18 -115 20
-11 1 -40 5 -65 9 -25 4 -58 9 -75 11 -16 2 -64 8 -105 14 -218 32 -336 44
-610 65 -41 4 -97 8 -125 11 -133 13 -1018 29 -1028 18z"/>
<path d="M2459 31126 c-1 -27 -1 -21588 0 -21601 1 -7 1029 -9 3068 -8 1688 1
3074 2 3081 2 9 1 12 689 12 3406 l0 3405 2123 1 2122 0 -100 35 c-328 113
-578 258 -798 465 -285 266 -482 648 -533 1034 -3 22 -9 63 -13 90 -4 28 -6
120 -5 205 1 140 5 192 19 270 3 14 7 39 10 55 9 58 15 79 41 167 98 334 283
606 590 868 83 70 340 240 364 240 18 0 10 19 -43 102 -122 190 -228 422 -263
582 -3 12 -6 26 -8 31 -3 9 -13 63 -22 110 -23 118 -22 430 1 535 3 14 7 39
10 56 2 17 11 60 20 95 109 430 385 802 773 1042 98 61 221 124 295 152 26 10
49 21 51 24 2 3 -1039 5 -2315 5 l-2319 -2 0 1249 0 1249 2670 0 c2377 0 2670
2 2670 15 0 8 4 23 9 33 12 24 23 50 85 202 142 351 362 825 516 1109 25 47
65 120 87 161 174 322 504 848 696 1109 272 371 415 547 702 871 148 167 530
549 689 690 66 58 126 112 135 120 23 21 236 198 296 245 28 22 52 42 55 45
35 37 453 338 640 462 152 101 438 278 448 278 3 0 13 6 21 14 9 8 39 26 66
40 28 15 57 31 65 37 80 51 530 282 720 368 189 87 216 99 255 116 22 9 49 20
60 25 68 31 353 137 479 179 48 15 89 30 92 33 3 3 -3960 6 -8806 6 l-8810 0
-1 -22z"/>
<path d="M13176 18829 c-62 -43 -173 -148 -218 -207 -60 -77 -112 -195 -132
-300 -55 -295 110 -588 419 -749 75 -39 197 -85 255 -97 14 -3 52 -10 85 -17
96 -19 405 -15 466 5 8 3 32 8 54 11 44 6 178 41 210 54 11 5 43 17 70 26 28
10 81 32 118 48 l68 30 -43 40 c-24 21 -108 100 -187 176 -80 75 -163 153
-185 174 -127 119 -190 179 -271 256 -50 47 -162 154 -249 236 -188 177 -231
218 -311 294 -33 32 -64 60 -70 63 -5 3 -41 -16 -79 -43z"/>
<path d="M20505 7349 c-109 -15 -140 -21 -157 -30 -10 -5 -18 -7 -18 -5 0 3
-33 -6 -72 -20 -357 -128 -543 -383 -541 -739 1 -269 123 -465 368 -587 46
-24 181 -75 215 -83 8 -2 62 -15 120 -29 58 -13 139 -32 180 -41 41 -9 84 -18
95 -21 11 -2 34 -7 50 -9 61 -11 178 -46 213 -64 101 -51 135 -141 91 -235
-23 -51 -68 -84 -149 -111 -70 -24 -251 -29 -319 -8 -25 7 -48 13 -51 13 -27
0 -116 41 -168 79 -50 37 -119 138 -128 188 -4 19 -13 37 -20 40 -8 3 -145 6
-305 7 l-290 1 6 -50 c40 -308 226 -562 505 -688 99 -44 101 -45 160 -62 399
-115 869 -55 1137 146 225 168 324 433 272 729 -31 176 -152 325 -339 417
-132 65 -248 102 -470 149 -19 4 -39 9 -45 10 -5 1 -46 11 -90 22 -44 11 -93
23 -110 26 -83 14 -181 56 -223 96 -27 25 -52 83 -52 119 0 61 30 129 72 165
70 60 135 80 268 80 145 1 216 -22 291 -95 49 -48 58 -63 89 -154 l17 -50 302
-3 302 -2 -6 51 c-40 313 -230 551 -535 671 -51 20 -128 43 -180 53 -3 1 -18
4 -35 8 -16 3 -48 9 -70 13 -59 9 -322 11 -380 3z"/>
<path d="M23820 7353 c-14 -2 -65 -13 -114 -24 -343 -80 -566 -343 -568 -668
-1 -137 24 -227 96 -353 l43 -77 -59 -37 c-166 -102 -283 -263 -331 -454 -14
-56 -15 -212 -2 -285 57 -327 344 -564 740 -611 79 -9 284 -9 360 1 148 18
334 81 450 151 l58 34 26 -22 c14 -13 48 -44 76 -70 48 -46 52 -48 110 -48 85
-1 668 -1 680 -1 6 1 -48 58 -120 127 -282 273 -406 398 -401 408 4 13 351
586 363 601 4 6 17 26 27 45 10 19 32 54 47 78 l28 42 -37 1 c-49 0 -511 0
-539 0 -17 -1 -47 -42 -144 -201 -67 -110 -127 -200 -132 -200 -5 0 -24 15
-42 33 -18 17 -155 151 -305 297 -349 339 -392 397 -392 521 0 138 106 234
246 223 115 -10 190 -84 221 -219 l12 -50 269 0 269 0 -3 45 c-4 71 -41 209
-77 287 -104 225 -300 374 -551 418 -42 7 -263 13 -304 8z m-73 -1619 c200
-190 289 -274 325 -306 17 -15 27 -31 24 -37 -4 -6 -44 -22 -89 -37 -191 -62
-388 -31 -496 78 -126 128 -106 305 46 419 21 15 39 27 40 26 1 -1 68 -65 150
-143z"/>
<path d="M3511 7303 c-8 -15 -193 -452 -323 -763 -83 -198 -480 -1136 -493
-1165 -7 -16 -43 -102 -80 -190 -87 -209 -104 -246 -116 -268 -6 -11 -8 -21
-6 -23 4 -4 427 -7 587 -5 l55 1 73 194 c41 106 78 199 82 206 7 11 107 13
514 13 279 0 508 -2 510 -4 1 -2 38 -94 81 -204 43 -110 79 -202 81 -203 4 -6
625 -5 630 1 6 5 -3 25 -604 1452 l-408 970 -287 3 c-265 2 -287 1 -296 -15z
m404 -978 c53 -137 100 -259 105 -270 30 -67 90 -229 86 -233 -11 -10 -606 -7
-606 3 0 10 100 277 120 320 5 11 46 115 91 230 44 116 83 216 87 224 4 11 7
10 13 -5 3 -10 50 -131 104 -269z"/>
<path d="M5372 6098 c0 -665 3 -1208 6 -1208 9 -1 540 -1 572 -1 l25 1 0 654
c0 480 3 653 11 648 6 -4 30 -29 54 -57 23 -27 68 -79 100 -115 31 -36 106
-121 166 -190 60 -69 111 -127 114 -130 3 -3 64 -72 135 -155 71 -82 146 -168
166 -190 20 -22 89 -101 154 -175 64 -74 143 -164 174 -199 31 -35 61 -70 66
-78 10 -13 159 -18 426 -14 l56 1 0 1208 0 1207 -296 -1 c-163 -1 -298 -2
-301 -3 -3 0 -5 -305 -5 -676 l0 -675 -20 23 c-12 12 -169 195 -350 407 -181
212 -354 414 -384 449 -31 35 -89 103 -129 150 -41 47 -84 97 -96 111 -12 14
-48 57 -81 95 -32 39 -69 81 -82 95 l-23 25 -229 0 -229 0 0 -1207z"/>
<path d="M8023 7296 c-7 -11 -8 -2395 -1 -2402 4 -4 473 -8 576 -5 l22 1 0
658 1 657 37 -40 c20 -22 64 -71 97 -110 33 -38 67 -76 75 -85 8 -9 55 -63
105 -120 49 -58 93 -107 96 -110 3 -3 56 -63 118 -135 63 -71 126 -144 142
-162 15 -17 74 -85 131 -150 56 -65 105 -120 108 -123 3 -3 32 -36 65 -75 33
-38 76 -88 96 -110 20 -22 47 -53 60 -68 l24 -28 228 0 c125 0 231 2 235 5 5
3 9 2383 3 2406 0 3 -135 5 -298 5 l-298 0 -3 -678 -2 -677 -92 107 c-51 60
-94 110 -97 113 -4 3 -31 34 -61 70 -30 36 -59 70 -65 76 -5 6 -21 24 -34 40
-83 98 -127 150 -131 154 -3 3 -30 34 -60 70 -30 36 -59 70 -65 76 -5 6 -32
37 -60 70 -27 32 -66 77 -86 99 -19 22 -84 99 -144 170 -61 72 -127 149 -149
172 -21 23 -45 52 -53 63 -8 11 -26 33 -40 48 l-25 27 -225 0 c-123 0 -227 -4
-230 -9z"/>
<path d="M10633 6555 c2 -412 7 -768 11 -790 71 -386 232 -636 506 -788 211
-116 486 -164 770 -134 67 7 72 8 155 26 315 71 558 266 692 559 39 86 89 269
101 371 4 36 7 390 7 786 l0 720 -300 0 -300 0 -1 -678 c-1 -373 -4 -701 -8
-730 -28 -249 -175 -433 -389 -486 -49 -12 -174 -16 -216 -7 -172 37 -288 127
-360 279 -63 135 -64 141 -66 912 -2 385 -3 702 -4 705 0 3 -136 5 -301 5
l-301 0 4 -750z"/>
<path d="M13273 7297 c-3 -5 -6 -548 -7 -1208 l-1 -1199 70 0 c121 -1 469 -1
503 -1 l32 1 0 1208 0 1207 -296 0 c-163 0 -298 -4 -301 -8z"/>
<path d="M14139 7270 c0 -19 -1 -140 -2 -268 -2 -200 0 -232 13 -233 8 0 183
0 387 0 l373 -1 2 -940 3 -941 294 1 c161 1 296 3 298 6 3 3 5 426 5 940 l0
934 341 1 c188 0 361 0 385 0 l42 1 0 268 0 267 -1070 0 -1070 0 -1 -35z"/>
<path d="M16549 7285 c-3 -129 0 -2388 4 -2391 3 -4 490 -8 575 -5 l22 1 0
1208 0 1207 -300 0 c-293 0 -300 0 -301 -20z"/>
<path d="M17575 7300 c-1 -3 -3 -546 -3 -1207 l0 -1203 32 0 c48 -1 1619 -1
1716 0 l85 0 0 260 0 260 -25 1 c-14 0 -290 1 -615 1 l-590 0 1 197 c1 108 2
202 3 209 1 9 115 12 534 12 l532 0 0 255 0 255 -25 1 c-14 0 -254 1 -535 2
l-510 2 0 218 0 217 612 0 613 0 1 28 c4 119 3 452 -2 472 l-5 25 -908 0
c-499 0 -909 -2 -911 -5z"/>
<path d="M26544 7301 c-2 -2 -4 -546 -4 -1208 l0 -1203 78 0 c97 -1 1682 -1
1702 0 13 0 15 35 15 263 l0 262 -596 3 -596 2 -1 893 c0 490 -1 915 -1 942
l-1 50 -296 0 c-163 0 -298 -2 -300 -4z"/>
<path d="M28619 7280 c0 -14 -1 -557 -2 -1208 l-2 -1182 25 0 c14 0 149 -1
300 -2 l275 -1 3 1209 2 1209 -300 0 -300 0 -1 -25z"/>
<path d="M29645 7300 c-1 -3 -2 -546 -2 -1207 l0 -1203 36 -1 c37 0 537 0 558
1 9 0 12 100 12 403 0 221 0 412 0 425 l1 22 515 0 515 0 1 23 c1 28 1 456 0
482 -1 20 -7 20 -516 20 -509 0 -515 0 -515 20 -3 110 1 479 4 482 3 3 272 5
600 5 l595 0 -2 266 -2 267 -898 0 c-495 0 -900 -2 -902 -5z"/>
<path d="M31719 7295 c-1 -5 -2 -549 -3 -1207 -1 -794 2 -1198 9 -1198 12 -1
1759 -1 1795 0 l25 0 -1 255 c0 140 -4 258 -7 261 -4 4 -277 7 -607 7 -398 0
-602 3 -607 10 -3 5 -6 99 -7 208 l-1 199 536 0 537 0 0 255 c0 254 0 255 -22
256 -11 0 -252 1 -533 1 -466 0 -513 2 -514 17 -1 20 -1 392 0 409 1 9 130 12
611 12 481 0 610 3 611 13 1 18 1 403 0 462 l-1 50 -910 0 c-599 0 -910 -3
-911 -10z"/>
</g>
</svg>
