<?xml version="1.0" encoding="utf-8"?>
<svg version="1.1" xmlns="http://www.w3.org/2000/svg" xmlns:xlink="http://www.w3.org/1999/xlink" x="0px" y="0px" width="72" height="72"
	 viewBox="0 0 72 72" style="enable-background:new 0 0 72 72;" xml:space="preserve">
<path d="M38.5,3.7c0,0,21.3,20.7,24.4,25.6c3.1,5,5.8,9.3,0.7,16.4S36.2,66.9,36.2,66.9s-3.5,2.5-5.1,0.6c-0.4-0.6-0.2-2,1.2-3.7
	c4.3-5.2,22.4-18.8,21.7-27.9S35.4,6.4,35.4,6.4s-1.8-2.6-0.5-3.6C36.4,1.5,38.5,3.7,38.5,3.7"/>
<path d="M28.6,7.9c0,0-19,15.9-21.9,19.8S1.3,35,5.2,41.3s21.5,19.3,21.5,19.3s2.8,2.3,4.2,0.8c0.4-0.4,0.3-1.6-0.7-3.1
	c-3.2-4.6-17.5-17-16.3-24.5s17.2-23.4,17.2-23.4s1.7-2,0.7-3C30.5,6.2,28.6,7.9,28.6,7.9"/>
<path d="M36.3,16.9c0,0-12.7,10.4-14.7,13.1s-3.7,4.8-1.1,9s14.2,13,14.2,13s1.8,1.6,2.8,0.5c0.3-0.3,0.2-1.1-0.5-2.1
	C34.9,47.4,25.5,39,26.3,34S38,18.5,38,18.5s1.1-1.3,0.5-2C37.6,15.8,36.3,16.9,36.3,16.9"/>
</svg>
