<svg id="Layer_1" data-name="Layer 1" xmlns="http://www.w3.org/2000/svg" viewBox="0 0 512 512"><title>FGL_safari</title><path d="M282.89,14.28S445.26,171.91,469.08,209.91,513.73,280.47,474.2,335,264.76,496.65,264.76,496.65s-26.83,19.22-38.66,4.17c-3.44-4.37-1.79-15.15,8.75-28,32.47-39.55,171-143.42,165.39-212.78S258.67,34.77,258.67,34.77,245.05,15.1,254.75,7.08c12-9.92,28.14,7.2,28.14,7.2"/><path d="M207.22,46.39S62.56,167.36,40.39,197.47s-41.46,55.89-12,103.63S192.5,448.38,192.5,448.38s21.1,17.64,31.89,5.87c3.11-3.44,2.41-12.5-5.56-23.79C194.3,395.56,85.56,300.7,94.52,243.39S226.07,64.91,226.07,64.91s12.55-15.5,5-22.76c-9.38-9-23.83,4.24-23.83,4.24"/><path d="M266,115.13s-97.27,79.65-112.26,99.56-28,37-8.7,69S253.39,383,253.39,383s13.94,11.91,21.2,4.12c2.11-2.24,1.69-8.29-3.51-15.89-16.13-23.44-87.94-87.42-81.59-125.57s88.95-118.06,88.95-118.06,8.48-10.24,3.48-15.13c-6.17-6.07-15.91,2.65-15.91,2.65"/></svg>