<svg id="Layer_1" data-name="Layer 1" xmlns="http://www.w3.org/2000/svg" viewBox="0 0 1584 720"><defs><style>.cls-1,.cls-5{fill:#646464;}.cls-2{fill:#fff;}.cls-3{fill:#582c83;}.cls-4{fill:none;stroke:#646464;stroke-width:3.95px;}.cls-5{font-size:96.15px;font-family:HelveticaNeue-Bold, Helvetica Neue;font-weight:700;}</style></defs><title>F&amp;amp;G_Logo_Tag</title><path class="cls-1" d="M711.9,599h26.16V587.8h-39v51.56h39V628.22H711.9v-9h22.82V608.35H711.9Zm-44.2.15h25.63V587.8H654.88v51.56H667.7V621.17h22.14V610H667.7Zm-21.91-11.3H633v51.56h12.82Zm-18.88,40.27H601.43V587.8H588.61v51.56h38.3Zm-96.6,2.12c-4.63,0-8.19-2.88-8.19-6.37a6.6,6.6,0,0,1,3.64-5.61l2.88,2.73,8.11,7.66a14.69,14.69,0,0,1-6.44,1.59m18,9.17h15.84L552.6,628.14l.31-.45,9.77-16.15H550.1l-5.46,8.87-8.49-8.27c-4.93-4.7-7.43-7-7.43-10.16a4.67,4.67,0,0,1,4.92-4.85c3,0,5,2.13,5.31,5.76h11.6c-.83-9.85-7-16.22-17.28-16.22-10.54,0-17.29,6.75-17.29,15a15.07,15.07,0,0,0,3.11,9c-5.09,2.73-8.72,7.28-8.72,13.57,0,9.71,7.81,16.23,19.64,16.23a25.82,25.82,0,0,0,14.93-4.25Zm-84.84-52.69c-12.14,0-20.48,6.52-20.48,16.83,0,8.19,4.78,13,14.94,15.17l8.49,1.89c4.4.83,5.46,2.65,5.46,4.4,0,2.8-2.5,4.55-7.28,4.55-6.06,0-10-2.73-10.84-7.28H440.91c1.22,12.74,11.68,18.2,23.28,18.2,12.89,0,21.38-6.45,21.38-16.76,0-8.87-6.14-12.66-15.54-14.71l-7.2-1.67c-3.87-.83-5.92-2-5.92-4.85,0-3.34,3-5.16,7.36-5.16,5.23,0,7.66,2.66,8.34,6.52H485.5c-1.29-13.87-13.73-17.13-22.06-17.13M410.06,599h26.15V587.8h-39v51.56h39V628.22H410.06v-9h22.82V608.35H410.06ZM388.14,587.8H375.33v51.56h12.81Zm-18.58,11.46V587.8H323.92v11.46h16.45v40.1h12.82v-40.1Zm-51.4-11.46H305.34v51.56h12.82Zm-21.16,0H284.11v27.76c0,7.88-4.4,13-11.14,13s-11.07-5.08-11.07-13V587.8H249v27.53c0,16,9.25,25.17,24,25.17s24-9.17,24-25.17Zm-56.26,0H227.93v29l-24.87-29h-9.79v51.56h12.82V611.08l24.72,28.28h9.93Zm-56.49,0H171.44v29l-24.87-29h-9.78v51.56H149.6V611.08l24.72,28.28h9.93ZM110,619.57H96.6l6.68-17.13Zm4.24,10.92,3.49,8.87h13.57L109.42,587.5H97.21L75.3,639.36H89l3.41-8.87Z"/><path class="cls-2" d="M522.43,386.83h85.76c-3.67,11.17-9.25,20.28-16.74,27.23-11.84,11-30,16.61-53.77,16.61-16.34,0-30.08-3-40.84-9a73.85,73.85,0,0,1-26.68-24.23,111.47,111.47,0,0,1-16.06-36.62,187.53,187.53,0,0,1-5.31-44.78,204,204,0,0,1,5.31-46.83,119.72,119.72,0,0,1,16.06-37.85A76.38,76.38,0,0,1,496.84,207c10.76-5.86,24.5-9,40.84-9,16.88,0,30.76,4.22,42.2,12.8,11,8.3,18.38,21,22.6,38.79l3.95,17H734l-2.32-24.1c-2.58-26.27-9.94-50.09-21.64-70.65a174.7,174.7,0,0,0-44.92-51.59A193.59,193.59,0,0,0,605.2,89,220.94,220.94,0,0,0,537.68,78.5c-34.31,0-65.62,6.26-93.38,18.51a202.11,202.11,0,0,0-70.79,51.32c-18.93,21.51-33.63,47-43.7,75.55A255.66,255.66,0,0,0,320,260.51c1.34-.09,2.69-.16,4.09-.16,26.11,0,42,16.24,44.09,41.39H338.62c-.77-9.28-6-14.7-13.54-14.7-7.16,0-12.57,4.83-12.57,12.38,0,7.93,6.38,13.92,18.95,25.91l21.67,21.09,13.92-22.63h32.11l-25,41.2-.77,1.16,29.4,28.63H362.41l-8.51-7.94A61.92,61.92,0,0,1,326.7,397c1,3.27,2.09,6.53,3.25,9.73C340,435,354.72,460.07,373.78,481.17a201.17,201.17,0,0,0,70.65,50.37c27.63,12.11,59.08,18.1,93.25,18.1a171.39,171.39,0,0,0,67.38-14,129.35,129.35,0,0,0,31-18.38l4.63,23.28h97.33V289.37H522.43Z"/><path class="cls-3" d="M295.68,355.12c0,8.9,9.09,16.25,20.89,16.25A37.41,37.41,0,0,0,333,367.31l-20.69-19.54-7.35-7c-5.61,3.29-9.29,8.32-9.29,14.31M450.88,78.91H74.58V540.52h131.5V395.13h90.8c-19.28-5.52-31.18-19.74-31.18-38.85,0-16,9.29-27.66,22.25-34.62-5.42-7.74-7.94-14.89-7.94-23,0-15.59,9.44-29,25.22-35H206.08V210.27H319.92c10.08-26.14,23.55-49.82,40.71-70a206.2,206.2,0,0,1,72.42-54.45,155.38,155.38,0,0,1,17.83-6.94"/><line class="cls-4" x1="835.17" y1="78.91" x2="835.17" y2="639.36"/><path class="cls-1" d="M988.81,172.9v12.69H952.56V200.3h33.27V212H952.56v16.83h37v12.69H937.46V172.9Z"/><path class="cls-1" d="M994.67,191.84h15.58l8.75,13,8.65-13h15.1l-16.35,23.27,18.37,26.44h-15.58l-10.38-15.67-10.39,15.67H993.14L1011,215.4Z"/><path class="cls-1" d="M1062.94,191.84v6.35h.19a15.05,15.05,0,0,1,6.35-5.87,19.55,19.55,0,0,1,8.46-1.82,21.51,21.51,0,0,1,10.1,2.21,21,21,0,0,1,7,5.86,25.07,25.07,0,0,1,4.13,8.51,37.73,37.73,0,0,1,1.35,10.15,34.07,34.07,0,0,1-1.35,9.61,24.42,24.42,0,0,1-4.09,8.17,20.12,20.12,0,0,1-6.82,5.68,20.58,20.58,0,0,1-9.57,2.11,19.36,19.36,0,0,1-8.51-1.87,16,16,0,0,1-6.39-5.53h-.2V259H1050V191.84Zm17.74,39.42a10.76,10.76,0,0,0,3.65-3.51,14.32,14.32,0,0,0,2-5,29.51,29.51,0,0,0,.58-5.87,28,28,0,0,0-.62-5.86,15.73,15.73,0,0,0-2.07-5.15,11.62,11.62,0,0,0-3.7-3.65,10.35,10.35,0,0,0-5.53-1.4,10.56,10.56,0,0,0-5.63,1.4,11.31,11.31,0,0,0-3.65,3.6,15,15,0,0,0-2,5.1,30.65,30.65,0,0,0-.58,6,27.48,27.48,0,0,0,.63,5.87,15,15,0,0,0,2,5,10.65,10.65,0,0,0,3.7,3.51,12.29,12.29,0,0,0,11.2,0Z"/><path class="cls-1" d="M1123.32,229.63q3.09,3,8.85,3a12.17,12.17,0,0,0,7.12-2.07,8.6,8.6,0,0,0,3.65-4.37h12q-2.88,8.94-8.85,12.79a26.05,26.05,0,0,1-14.42,3.84,28.41,28.41,0,0,1-10.58-1.87,22,22,0,0,1-8-5.34,24.06,24.06,0,0,1-5.05-8.27,30.39,30.39,0,0,1-1.77-10.58,29,29,0,0,1,1.82-10.38,24,24,0,0,1,13.22-13.85,25.88,25.88,0,0,1,10.34-2,23.58,23.58,0,0,1,11.06,2.45,22.08,22.08,0,0,1,7.74,6.58,27.12,27.12,0,0,1,4.37,9.43,34.87,34.87,0,0,1,1,11H1120Q1120.25,226.66,1123.32,229.63Zm15.44-26.15q-2.46-2.7-7.45-2.7a11.89,11.89,0,0,0-5.44,1.11,10.44,10.44,0,0,0-3.46,2.74,10.25,10.25,0,0,0-1.83,3.46,15.58,15.58,0,0,0-.62,3.27h22.21A15.78,15.78,0,0,0,1138.76,203.48Z"/><path class="cls-1" d="M1176.88,191.84v9.23h.19a16.85,16.85,0,0,1,2.6-4.28,17.11,17.11,0,0,1,3.75-3.36,18.46,18.46,0,0,1,4.52-2.17,16.38,16.38,0,0,1,5-.76,10.7,10.7,0,0,1,3,.48v12.69c-.64-.13-1.41-.24-2.31-.34s-1.76-.14-2.6-.14a14.56,14.56,0,0,0-6.34,1.25,10.91,10.91,0,0,0-4.18,3.41,13.7,13.7,0,0,0-2.27,5.05,28,28,0,0,0-.67,6.25v22.4H1163.9V191.84Z"/><path class="cls-1" d="M1201.69,184.15V172.9h13.65v11.25Zm13.65,7.69v49.71h-13.65V191.84Z"/><path class="cls-1" d="M1240.72,229.63q3.08,3,8.85,3a12.14,12.14,0,0,0,7.11-2.07,8.58,8.58,0,0,0,3.66-4.37h12q-2.89,8.94-8.85,12.79a26.05,26.05,0,0,1-14.42,3.84,28.41,28.41,0,0,1-10.58-1.87,22,22,0,0,1-8-5.34,24.06,24.06,0,0,1-5-8.27,30.39,30.39,0,0,1-1.78-10.58,29,29,0,0,1,1.83-10.38,24,24,0,0,1,13.22-13.85,25.88,25.88,0,0,1,10.34-2,23.61,23.61,0,0,1,11.06,2.45,22.08,22.08,0,0,1,7.74,6.58,27.12,27.12,0,0,1,4.37,9.43,34.87,34.87,0,0,1,1,11h-35.86Q1237.65,226.66,1240.72,229.63Zm15.44-26.15c-1.64-1.8-4.12-2.7-7.46-2.7a11.82,11.82,0,0,0-5.43,1.11,10.44,10.44,0,0,0-3.46,2.74,9.9,9.9,0,0,0-1.83,3.46,15.58,15.58,0,0,0-.62,3.27h22.21A15.78,15.78,0,0,0,1256.16,203.48Z"/><path class="cls-1" d="M1294.28,191.84v6.92h.29a15.62,15.62,0,0,1,6.73-6.29,19.34,19.34,0,0,1,8.46-2,23.08,23.08,0,0,1,9,1.49,13.34,13.34,0,0,1,5.53,4.13,16.14,16.14,0,0,1,2.84,6.44,40.51,40.51,0,0,1,.81,8.42v30.57h-13.65V213.48q0-6.16-1.92-9.19c-1.29-2-3.56-3-6.83-3q-5.58,0-8.08,3.32T1295,215.5v26.05H1281.3V191.84Z"/><path class="cls-1" d="M1362.07,200.78a9.66,9.66,0,0,0-5.49,1.49,12,12,0,0,0-3.6,3.85,16.48,16.48,0,0,0-2,5.19,27.81,27.81,0,0,0-.58,5.63,26.67,26.67,0,0,0,.58,5.48,17,17,0,0,0,1.87,5.05,10.9,10.9,0,0,0,3.51,3.7,9.68,9.68,0,0,0,5.39,1.44c3.27,0,5.78-.91,7.55-2.74a13,13,0,0,0,3.31-7.36h13.17q-1.33,9.92-7.69,15.1t-16.25,5.19a27.24,27.24,0,0,1-10.24-1.87,22.74,22.74,0,0,1-7.93-5.24,24,24,0,0,1-5.1-8,28,28,0,0,1-1.82-10.24,33.14,33.14,0,0,1,1.68-10.72,24.07,24.07,0,0,1,5-8.56,22.79,22.79,0,0,1,8-5.63,27.22,27.22,0,0,1,10.77-2,31.11,31.11,0,0,1,8.51,1.15,22.72,22.72,0,0,1,7.31,3.51,18.14,18.14,0,0,1,7.55,14.18h-13.37Q1370.81,200.79,1362.07,200.78Z"/><path class="cls-1" d="M1408.12,229.63q3.08,3,8.85,3a12.14,12.14,0,0,0,7.11-2.07,8.58,8.58,0,0,0,3.66-4.37h12q-2.9,8.94-8.85,12.79a26.08,26.08,0,0,1-14.42,3.84,28.41,28.41,0,0,1-10.58-1.87,22,22,0,0,1-8-5.34,24.06,24.06,0,0,1-5-8.27,30.39,30.39,0,0,1-1.78-10.58,29,29,0,0,1,1.83-10.38,24,24,0,0,1,13.22-13.85,25.84,25.84,0,0,1,10.34-2,23.61,23.61,0,0,1,11.06,2.45,22.08,22.08,0,0,1,7.74,6.58,27.3,27.3,0,0,1,4.37,9.43,34.87,34.87,0,0,1,1,11h-35.86Q1405,226.66,1408.12,229.63Zm15.43-26.15c-1.63-1.8-4.12-2.7-7.45-2.7a11.82,11.82,0,0,0-5.43,1.11,10.34,10.34,0,0,0-3.46,2.74,9.9,9.9,0,0,0-1.83,3.46,15.58,15.58,0,0,0-.62,3.27H1427A15.7,15.7,0,0,0,1423.55,203.48Z"/><text class="cls-5" transform="translate(1470.23 241.55)"> </text><path class="cls-1" d="M963.33,291.5v9.13h-10v24.62c0,2.3.38,3.84,1.15,4.61s2.31,1.16,4.62,1.16c.77,0,1.5,0,2.21-.1a17.85,17.85,0,0,0,2-.29v10.58a32.37,32.37,0,0,1-3.85.38c-1.41.07-2.79.1-4.13.1a41,41,0,0,1-6-.43,14.07,14.07,0,0,1-5-1.69,8.93,8.93,0,0,1-3.42-3.55,12.76,12.76,0,0,1-1.24-6.06V300.63h-8.27V291.5h8.27V276.59h13.65V291.5Z"/><path class="cls-1" d="M983.52,272.56v25.86h.29a15.88,15.88,0,0,1,6.63-6.3,18,18,0,0,1,7.89-2,23.27,23.27,0,0,1,9,1.49,13.36,13.36,0,0,1,5.53,4.14,16,16,0,0,1,2.83,6.44,39.72,39.72,0,0,1,.82,8.41v30.58h-13.65V313.13q0-6.15-1.93-9.18t-6.82-3q-5.58,0-8.08,3.32t-2.5,10.91v26.06H969.87V272.56Z"/><path class="cls-1" d="M1041.5,329.29c2,2,5,3,8.84,3a12.17,12.17,0,0,0,7.12-2.07,8.57,8.57,0,0,0,3.65-4.38h12q-2.88,9-8.84,12.79a26,26,0,0,1-14.43,3.85,28.35,28.35,0,0,1-10.57-1.88,21.79,21.79,0,0,1-8-5.33,24,24,0,0,1-5-8.27,30.2,30.2,0,0,1-1.78-10.58,28.94,28.94,0,0,1,1.83-10.38,24.12,24.12,0,0,1,5.19-8.32,24.45,24.45,0,0,1,8-5.53,25.83,25.83,0,0,1,10.33-2,23.7,23.7,0,0,1,11.06,2.45,22.22,22.22,0,0,1,7.74,6.59,27.17,27.17,0,0,1,4.38,9.42,35.55,35.55,0,0,1,1,11.06h-35.87Q1038.42,326.3,1041.5,329.29Zm15.43-26.16c-1.63-1.79-4.12-2.69-7.45-2.69a11.82,11.82,0,0,0-5.43,1.11,10.26,10.26,0,0,0-3.47,2.74,10,10,0,0,0-1.82,3.46,16.34,16.34,0,0,0-.63,3.27h22.21A15.86,15.86,0,0,0,1056.93,303.13Z"/><path class="cls-1" d="M1141.21,272.56a28.63,28.63,0,0,1,11,1.87,20.51,20.51,0,0,1,7.35,4.95,19,19,0,0,1,4.14,7,26.2,26.2,0,0,1,0,16.3,18.92,18.92,0,0,1-4.14,7.07,20.51,20.51,0,0,1-7.35,5,28.63,28.63,0,0,1-11,1.87h-15.87v24.62h-15.09V272.56Zm-4.14,32.3a31.19,31.19,0,0,0,5-.38,11.54,11.54,0,0,0,4.23-1.49,8.15,8.15,0,0,0,2.94-3.13,13.25,13.25,0,0,0,0-10.57,8.15,8.15,0,0,0-2.94-3.13,11.73,11.73,0,0,0-4.23-1.49,32.38,32.38,0,0,0-5-.38h-11.73v20.57Z"/><path class="cls-1" d="M1173.23,305.58A22.69,22.69,0,0,1,1186.49,292a28.41,28.41,0,0,1,10.58-1.88A28.82,28.82,0,0,1,1207.7,292a23.21,23.21,0,0,1,8.12,5.28,23.46,23.46,0,0,1,5.19,8.27,30.51,30.51,0,0,1,1.83,10.82,30,30,0,0,1-1.83,10.77,23.34,23.34,0,0,1-5.19,8.22,22.57,22.57,0,0,1-8.12,5.24,29.46,29.46,0,0,1-10.63,1.83,29,29,0,0,1-10.58-1.83,22.63,22.63,0,0,1-8.07-5.24,23.06,23.06,0,0,1-5.19-8.22,30,30,0,0,1-1.83-10.77A30.51,30.51,0,0,1,1173.23,305.58Zm12.4,16.64a15.44,15.44,0,0,0,2,5.1,10.55,10.55,0,0,0,3.7,3.6,11.28,11.28,0,0,0,5.77,1.35,11.55,11.55,0,0,0,5.82-1.35,10.45,10.45,0,0,0,3.75-3.6,15.67,15.67,0,0,0,2-5.1,29.46,29.46,0,0,0,.58-5.82,30.09,30.09,0,0,0-.58-5.86,15.07,15.07,0,0,0-2-5.1,11,11,0,0,0-3.75-3.61,11.34,11.34,0,0,0-5.82-1.39,10.47,10.47,0,0,0-9.47,5,14.87,14.87,0,0,0-2,5.1,29.34,29.34,0,0,0-.58,5.86A28.72,28.72,0,0,0,1185.63,322.22Z"/><path class="cls-1" d="M1274.47,341.21l-8.84-33.37h-.2L1257,341.21h-14.13l-15.77-49.71h14.42l9.14,33.75h.19l8.27-33.75h13.27l8.46,33.65h.19l9.13-33.65h14l-15.67,49.71Z"/><path class="cls-1" d="M1324.57,329.29c2,2,5,3,8.84,3a12.17,12.17,0,0,0,7.12-2.07,8.57,8.57,0,0,0,3.65-4.38h12q-2.88,9-8.84,12.79a26,26,0,0,1-14.43,3.85,28.35,28.35,0,0,1-10.57-1.88,21.79,21.79,0,0,1-8-5.33,24,24,0,0,1-5.05-8.27,30.2,30.2,0,0,1-1.78-10.58,28.94,28.94,0,0,1,1.83-10.38,24.12,24.12,0,0,1,5.19-8.32,24.45,24.45,0,0,1,8-5.53,25.83,25.83,0,0,1,10.33-2A23.7,23.7,0,0,1,1344,292.6a22.22,22.22,0,0,1,7.74,6.59,27.17,27.17,0,0,1,4.38,9.42,35.55,35.55,0,0,1,1,11.06H1321.2Q1321.49,326.3,1324.57,329.29ZM1340,303.13c-1.63-1.79-4.12-2.69-7.45-2.69a11.82,11.82,0,0,0-5.43,1.11,10.26,10.26,0,0,0-3.47,2.74,10,10,0,0,0-1.82,3.46,15.66,15.66,0,0,0-.63,3.27h22.21A15.86,15.86,0,0,0,1340,303.13Z"/><path class="cls-1" d="M1378.12,291.5v9.23h.2a16.81,16.81,0,0,1,2.59-4.28,17.16,17.16,0,0,1,3.75-3.37,18.6,18.6,0,0,1,4.52-2.16,16.38,16.38,0,0,1,5-.77,10.65,10.65,0,0,1,3,.48v12.7a27.93,27.93,0,0,0-4.9-.49,14.61,14.61,0,0,0-6.35,1.25,11,11,0,0,0-4.18,3.42,13.61,13.61,0,0,0-2.26,5.05,27.35,27.35,0,0,0-.67,6.25v22.4h-13.66V291.5Z"/><path class="cls-1" d="M1429.56,305.58A22.74,22.74,0,0,1,1442.83,292a28.41,28.41,0,0,1,10.58-1.88A28.82,28.82,0,0,1,1464,292a22.59,22.59,0,0,1,13.31,13.55,30.51,30.51,0,0,1,1.83,10.82,30,30,0,0,1-1.83,10.77,23.34,23.34,0,0,1-5.19,8.22,22.66,22.66,0,0,1-8.12,5.24,29.46,29.46,0,0,1-10.63,1.83,29,29,0,0,1-10.58-1.83,22.63,22.63,0,0,1-8.07-5.24,23.22,23.22,0,0,1-5.2-8.22,30.26,30.26,0,0,1-1.82-10.77A30.74,30.74,0,0,1,1429.56,305.58ZM1442,322.22a15.44,15.44,0,0,0,2,5.1,10.55,10.55,0,0,0,3.7,3.6,11.28,11.28,0,0,0,5.77,1.35,11.55,11.55,0,0,0,5.82-1.35,10.45,10.45,0,0,0,3.75-3.6,15.67,15.67,0,0,0,2-5.1,29.46,29.46,0,0,0,.58-5.82,30.09,30.09,0,0,0-.58-5.86,15.07,15.07,0,0,0-2-5.1,11,11,0,0,0-3.75-3.61,11.34,11.34,0,0,0-5.82-1.39,10.47,10.47,0,0,0-9.47,5,14.87,14.87,0,0,0-2,5.1,29.34,29.34,0,0,0-.58,5.86A28.72,28.72,0,0,0,1442,322.22Z"/><path class="cls-1" d="M1482.83,300.63V291.5H1491v-3.85a14.87,14.87,0,0,1,4.13-10.86q4.14-4.23,12.5-4.23c1.22,0,2.44,0,3.65.14s2.41.18,3.56.24v10.19a42.42,42.42,0,0,0-5-.29,5.25,5.25,0,0,0-4,1.3q-1.2,1.31-1.2,4.38v3h9.42v9.13h-9.42v40.58H1491V300.63Z"/><path class="cls-1" d="M981.5,390.48a15.34,15.34,0,0,0-3.36-3.79,15.82,15.82,0,0,0-9.91-3.47,17.53,17.53,0,0,0-8.65,2,16.27,16.27,0,0,0-5.77,5.28,23,23,0,0,0-3.22,7.55,37.75,37.75,0,0,0-1,8.75,35,35,0,0,0,1,8.41,22.52,22.52,0,0,0,3.22,7.36,16.44,16.44,0,0,0,5.77,5.24,17.53,17.53,0,0,0,8.65,2q6.93,0,10.82-4.23a19.56,19.56,0,0,0,4.76-11.15h14.61a34.61,34.61,0,0,1-3,11.63,28,28,0,0,1-6.34,8.85,27.09,27.09,0,0,1-9.23,5.57,33.68,33.68,0,0,1-11.64,1.93,35.33,35.33,0,0,1-14.18-2.74,30.43,30.43,0,0,1-10.62-7.55,33.39,33.39,0,0,1-6.64-11.3,41.44,41.44,0,0,1-2.31-14,42.85,42.85,0,0,1,2.31-14.28A34.26,34.26,0,0,1,943.43,381a30.26,30.26,0,0,1,10.62-7.69,36.74,36.74,0,0,1,24.9-1.15,28.85,28.85,0,0,1,9,4.76,25.65,25.65,0,0,1,6.59,7.74,27.66,27.66,0,0,1,3.27,10.57H983.23A12.23,12.23,0,0,0,981.5,390.48Z"/><path class="cls-1" d="M1007.56,405.19a22.67,22.67,0,0,1,13.27-13.55,28.37,28.37,0,0,1,10.58-1.88,28.77,28.77,0,0,1,10.62,1.88,22.64,22.64,0,0,1,13.32,13.55,30.74,30.74,0,0,1,1.82,10.82,30.26,30.26,0,0,1-1.82,10.77,23.22,23.22,0,0,1-5.2,8.22,22.57,22.57,0,0,1-8.12,5.24,29.4,29.4,0,0,1-10.62,1.83,29,29,0,0,1-10.58-1.83,22.67,22.67,0,0,1-8.08-5.24,23.34,23.34,0,0,1-5.19-8.22,30,30,0,0,1-1.83-10.77A30.51,30.51,0,0,1,1007.56,405.19Zm12.4,16.64a15.67,15.67,0,0,0,2,5.1,10.57,10.57,0,0,0,3.71,3.6,11.25,11.25,0,0,0,5.77,1.35,11.53,11.53,0,0,0,5.81-1.35,10.45,10.45,0,0,0,3.75-3.6,15.44,15.44,0,0,0,2-5.1,28.72,28.72,0,0,0,.58-5.82,29.34,29.34,0,0,0-.58-5.86,14.87,14.87,0,0,0-2-5.1,11,11,0,0,0-3.75-3.61,11.33,11.33,0,0,0-5.81-1.39,10.5,10.5,0,0,0-9.48,5,15.07,15.07,0,0,0-2,5.1,30.08,30.08,0,0,0-.57,5.86A29.45,29.45,0,0,0,1020,421.83Z"/><path class="cls-1" d="M1080.06,372.17v68.65H1066.4V372.17Z"/><path class="cls-1" d="M1104.86,372.17v68.65h-13.65V372.17Z"/><path class="cls-1" d="M1115.05,406.4a15.91,15.91,0,0,1,2.41-8,16.29,16.29,0,0,1,5.38-5.1,23.62,23.62,0,0,1,7.36-2.74,42.12,42.12,0,0,1,8.22-.82,56.25,56.25,0,0,1,7.6.53,23.12,23.12,0,0,1,7,2.07,13.82,13.82,0,0,1,5.19,4.28,12,12,0,0,1,2,7.26v25.86a51.16,51.16,0,0,0,.38,6.44,11.66,11.66,0,0,0,1.35,4.62h-13.85a17,17,0,0,1-.62-2.36,17.84,17.84,0,0,1-.34-2.45,17.7,17.7,0,0,1-7.69,4.71,30.8,30.8,0,0,1-9,1.35,24.39,24.39,0,0,1-6.64-.87,15,15,0,0,1-5.38-2.69,12.56,12.56,0,0,1-3.61-4.61,15.7,15.7,0,0,1-1.29-6.64,14.43,14.43,0,0,1,1.49-7,12.37,12.37,0,0,1,3.84-4.37,17.37,17.37,0,0,1,5.39-2.46,58.56,58.56,0,0,1,6.1-1.29q3.08-.48,6.06-.77a38.14,38.14,0,0,0,5.29-.87,9.11,9.11,0,0,0,3.65-1.68,3.7,3.7,0,0,0,1.25-3.22,7.23,7.23,0,0,0-.72-3.51,5.26,5.26,0,0,0-1.92-2,7.56,7.56,0,0,0-2.79-1,22.91,22.91,0,0,0-3.41-.24,10.32,10.32,0,0,0-6.35,1.73q-2.31,1.72-2.69,5.77Zm31.54,10.09a5.78,5.78,0,0,1-2.16,1.2,23.61,23.61,0,0,1-2.79.73c-1,.19-2,.35-3.12.48s-2.18.28-3.27.48a24,24,0,0,0-3,.77,9,9,0,0,0-2.6,1.29,6.25,6.25,0,0,0-1.78,2.07,6.65,6.65,0,0,0-.67,3.17,6.41,6.41,0,0,0,.67,3.08,5.12,5.12,0,0,0,1.83,2,7.72,7.72,0,0,0,2.69,1,17.38,17.38,0,0,0,3.17.29,12,12,0,0,0,6.25-1.35,8.86,8.86,0,0,0,3.27-3.22,10.19,10.19,0,0,0,1.3-3.79,26.29,26.29,0,0,0,.24-3.08Z"/><path class="cls-1" d="M1184.48,372.17v25h.19a14.5,14.5,0,0,1,6.78-5.63,22.83,22.83,0,0,1,8.89-1.78,19,19,0,0,1,14,6.25,24.13,24.13,0,0,1,4.76,8.13,38.8,38.8,0,0,1,0,23.55,24,24,0,0,1-4.76,8.13,19,19,0,0,1-14,6.25,26.35,26.35,0,0,1-9.81-1.73,12.51,12.51,0,0,1-6.54-5.87h-.19v6.35h-13V372.17ZM1206.59,410a15.83,15.83,0,0,0-2.11-5.09,11.09,11.09,0,0,0-3.61-3.51,11.11,11.11,0,0,0-10.43,0,10.86,10.86,0,0,0-3.66,3.51,15.83,15.83,0,0,0-2.11,5.09A26.61,26.61,0,0,0,1184,416a26.06,26.06,0,0,0,.68,6,15.8,15.8,0,0,0,2.11,5.1,11.05,11.05,0,0,0,3.66,3.51,11.11,11.11,0,0,0,10.43,0,11.29,11.29,0,0,0,3.61-3.51,15.8,15.8,0,0,0,2.11-5.1,26.05,26.05,0,0,0,.67-6A26.61,26.61,0,0,0,1206.59,410Z"/><path class="cls-1" d="M1229.86,405.19a22.67,22.67,0,0,1,13.27-13.55,28.37,28.37,0,0,1,10.58-1.88,28.73,28.73,0,0,1,10.62,1.88,22.64,22.64,0,0,1,13.32,13.55,30.74,30.74,0,0,1,1.83,10.82,30.26,30.26,0,0,1-1.83,10.77,23.22,23.22,0,0,1-5.2,8.22,22.57,22.57,0,0,1-8.12,5.24,29.36,29.36,0,0,1-10.62,1.83,29,29,0,0,1-10.58-1.83,22.67,22.67,0,0,1-8.08-5.24,23.34,23.34,0,0,1-5.19-8.22A30,30,0,0,1,1228,416,30.51,30.51,0,0,1,1229.86,405.19Zm12.4,16.64a15.89,15.89,0,0,0,2,5.1,10.57,10.57,0,0,0,3.71,3.6,11.25,11.25,0,0,0,5.77,1.35,11.53,11.53,0,0,0,5.81-1.35,10.45,10.45,0,0,0,3.75-3.6,15.44,15.44,0,0,0,2-5.1,28.72,28.72,0,0,0,.58-5.82,29.34,29.34,0,0,0-.58-5.86,14.87,14.87,0,0,0-2-5.1,11,11,0,0,0-3.75-3.61,11.33,11.33,0,0,0-5.81-1.39,10.5,10.5,0,0,0-9.48,5,15.28,15.28,0,0,0-2,5.1,30.08,30.08,0,0,0-.57,5.86A29.45,29.45,0,0,0,1242.26,421.83Z"/><path class="cls-1" d="M1301.3,391.11v9.23h.19a16.85,16.85,0,0,1,2.6-4.28,17.16,17.16,0,0,1,3.75-3.37,18.6,18.6,0,0,1,4.52-2.16,16.38,16.38,0,0,1,5-.77,10.7,10.7,0,0,1,3,.48v12.7a27.91,27.91,0,0,0-4.91-.49,14.56,14.56,0,0,0-6.34,1.25,10.94,10.94,0,0,0-4.18,3.42,13.45,13.45,0,0,0-2.26,5.05,27.33,27.33,0,0,0-.68,6.25v22.4h-13.65V391.11Z"/><path class="cls-1" d="M1325.15,406.4a15.8,15.8,0,0,1,2.4-8,16.29,16.29,0,0,1,5.38-5.1,23.71,23.71,0,0,1,7.36-2.74,42.12,42.12,0,0,1,8.22-.82,56.25,56.25,0,0,1,7.6.53,23.12,23.12,0,0,1,7,2.07,13.82,13.82,0,0,1,5.19,4.28,12,12,0,0,1,2,7.26v25.86a53.11,53.11,0,0,0,.38,6.44,11.66,11.66,0,0,0,1.35,4.62h-13.85a20.43,20.43,0,0,1-.62-2.36,19.52,19.52,0,0,1-.34-2.45,17.65,17.65,0,0,1-7.69,4.71,30.8,30.8,0,0,1-9,1.35,24.27,24.27,0,0,1-6.63-.87,15,15,0,0,1-5.39-2.69,12.44,12.44,0,0,1-3.6-4.61,15.54,15.54,0,0,1-1.3-6.64,14.43,14.43,0,0,1,1.49-7,12.37,12.37,0,0,1,3.84-4.37,17.37,17.37,0,0,1,5.39-2.46,58.56,58.56,0,0,1,6.1-1.29c2.06-.32,4.07-.58,6.06-.77a38.14,38.14,0,0,0,5.29-.87,9.11,9.11,0,0,0,3.65-1.68,3.67,3.67,0,0,0,1.25-3.22,7.23,7.23,0,0,0-.72-3.51,5.26,5.26,0,0,0-1.92-2,7.56,7.56,0,0,0-2.79-1,22.91,22.91,0,0,0-3.41-.24,10.34,10.34,0,0,0-6.35,1.73c-1.54,1.15-2.43,3.07-2.69,5.77Zm31.53,10.09a5.78,5.78,0,0,1-2.16,1.2,23.11,23.11,0,0,1-2.79.73q-1.49.29-3.12.48c-1.09.13-2.18.28-3.27.48a24,24,0,0,0-3,.77,9,9,0,0,0-2.6,1.29,6.25,6.25,0,0,0-1.78,2.07,6.65,6.65,0,0,0-.67,3.17,6.41,6.41,0,0,0,.67,3.08,5.12,5.12,0,0,0,1.83,2,7.72,7.72,0,0,0,2.69,1,17.41,17.41,0,0,0,3.18.29,12.06,12.06,0,0,0,6.25-1.35,9,9,0,0,0,3.27-3.22,10.35,10.35,0,0,0,1.29-3.79,26.29,26.29,0,0,0,.24-3.08Z"/><path class="cls-1" d="M1408.22,391.11v9.13h-10v24.62c0,2.3.38,3.84,1.15,4.61s2.31,1.16,4.62,1.16c.77,0,1.5,0,2.21-.1a17.85,17.85,0,0,0,2-.29v10.58a32.37,32.37,0,0,1-3.85.38c-1.41.07-2.79.1-4.13.1a41,41,0,0,1-6-.43,14.07,14.07,0,0,1-5-1.69,8.93,8.93,0,0,1-3.42-3.55,12.76,12.76,0,0,1-1.24-6.06V400.24h-8.27v-9.13h8.27v-14.9h13.65v14.9Z"/><path class="cls-1" d="M1415.14,383.42V372.17h13.65v11.25Zm13.65,7.69v49.71h-13.65V391.11Z"/><path class="cls-1" d="M1451.87,440.82l-17-49.71h14.33l10.48,33.94h.19l10.48-33.94h13.56l-16.83,49.71Z"/><path class="cls-1" d="M1504.18,428.9c2,2,5,3,8.84,3a12.17,12.17,0,0,0,7.12-2.07,8.57,8.57,0,0,0,3.65-4.38h12q-2.88,9-8.84,12.79a26,26,0,0,1-14.43,3.85,28.35,28.35,0,0,1-10.57-1.88,21.79,21.79,0,0,1-8-5.33,24,24,0,0,1-5-8.27,30.2,30.2,0,0,1-1.78-10.58,28.94,28.94,0,0,1,1.83-10.38,24.12,24.12,0,0,1,5.19-8.32,24.45,24.45,0,0,1,8-5.53,25.83,25.83,0,0,1,10.33-2,23.7,23.7,0,0,1,11.06,2.45,22.22,22.22,0,0,1,7.74,6.59,27.17,27.17,0,0,1,4.38,9.42,35.55,35.55,0,0,1,1,11.06h-35.87Q1501.1,425.91,1504.18,428.9Zm15.43-26.16c-1.63-1.79-4.12-2.69-7.45-2.69a11.82,11.82,0,0,0-5.43,1.11,10.26,10.26,0,0,0-3.47,2.74,10,10,0,0,0-1.82,3.46,15.66,15.66,0,0,0-.63,3.27H1523A15.86,15.86,0,0,0,1519.61,402.74Z"/><path class="cls-1" d="M932.08,484.55V471.86h56.25v12.69H967.75v56H952.66v-56Z"/><path class="cls-1" d="M1008.42,471.86v25.86h.29a15.76,15.76,0,0,1,6.64-6.29,17.8,17.8,0,0,1,7.88-2,23.27,23.27,0,0,1,9,1.49,13.45,13.45,0,0,1,5.53,4.14,16.14,16.14,0,0,1,2.84,6.44,40.41,40.41,0,0,1,.81,8.41v30.58h-13.65V512.43q0-6.15-1.92-9.18c-1.29-2-3.56-3-6.83-3q-5.58,0-8.08,3.32t-2.5,10.91v26.06H994.77V471.86Z"/><path class="cls-1" d="M1052.17,483.11V471.86h13.66v11.25Zm13.66,7.69v49.71h-13.66V490.8Z"/><path class="cls-1" d="M1089.57,490.8v6.92h.29a15.68,15.68,0,0,1,6.73-6.29,19.41,19.41,0,0,1,8.46-2,23.32,23.32,0,0,1,9,1.49,13.41,13.41,0,0,1,5.52,4.14,15.87,15.87,0,0,1,2.84,6.44,40.39,40.39,0,0,1,.82,8.41v30.58h-13.66V512.43q0-6.15-1.92-9.18t-6.83-3c-3.71,0-6.41,1.11-8.07,3.32s-2.5,5.85-2.5,10.91v26.06h-13.66V490.8Z"/><path class="cls-1" d="M1148.51,471.86v36.82l17.21-17.88h16.16l-18.75,18.27L1184,540.51h-16.53L1153.8,518.3l-5.29,5.09v17.12h-13.65V471.86Z"/><path class="cls-1" d="M1189.19,483.11V471.86h13.65v11.25Zm13.65,7.69v49.71h-13.65V490.8Z"/><path class="cls-1" d="M1226.59,490.8v6.92h.29a15.62,15.62,0,0,1,6.73-6.29,19.35,19.35,0,0,1,8.46-2,23.27,23.27,0,0,1,9,1.49,13.45,13.45,0,0,1,5.53,4.14,16.14,16.14,0,0,1,2.84,6.44,40.41,40.41,0,0,1,.81,8.41v30.58h-13.65V512.43q0-6.15-1.92-9.18c-1.29-2-3.56-3-6.83-3q-5.58,0-8.08,3.32t-2.5,10.91v26.06h-13.65V490.8Z"/><path class="cls-1" d="M1317.6,544.16a16.93,16.93,0,0,1-3.51,7.17,21,21,0,0,1-7.79,5.62q-5.1,2.31-13.66,2.31a32.28,32.28,0,0,1-7.45-.91,23.73,23.73,0,0,1-6.92-2.84,16.91,16.91,0,0,1-5.19-5,14.32,14.32,0,0,1-2.36-7.26h13.56a7.82,7.82,0,0,0,3.75,5.34,13.48,13.48,0,0,0,6.44,1.49q5.77,0,8.41-3.47a13.48,13.48,0,0,0,2.55-8.75v-6.53h-.19a13.5,13.5,0,0,1-6.3,5.81,20.37,20.37,0,0,1-8.6,1.88,21.78,21.78,0,0,1-9.62-2,18.27,18.27,0,0,1-6.63-5.39,22.37,22.37,0,0,1-3.8-8,37.82,37.82,0,0,1-1.2-9.66,31,31,0,0,1,1.39-9.28,24.1,24.1,0,0,1,4.09-7.88,19.71,19.71,0,0,1,6.68-5.44,20.14,20.14,0,0,1,9.18-2,19.21,19.21,0,0,1,8.61,1.83,14.94,14.94,0,0,1,6.2,6.15h.19V490.8h13v46.54A33.45,33.45,0,0,1,1317.6,544.16Zm-18.71-16.53a10.65,10.65,0,0,0,3.66-3.08,13.59,13.59,0,0,0,2.16-4.38,18.14,18.14,0,0,0,.72-5.14,28.58,28.58,0,0,0-.57-5.82,14.63,14.63,0,0,0-1.93-4.85,10,10,0,0,0-3.56-3.37,11.22,11.22,0,0,0-5.57-1.25,10,10,0,0,0-5,1.16,10.46,10.46,0,0,0-3.47,3.12,13.27,13.27,0,0,0-2,4.52,22.7,22.7,0,0,0-.62,5.34,27.29,27.29,0,0,0,.53,5.33,14.21,14.21,0,0,0,1.83,4.76,10.54,10.54,0,0,0,3.41,3.46,9.64,9.64,0,0,0,5.29,1.35A10.82,10.82,0,0,0,1298.89,527.63Z"/></svg>